<mxfile host="www.draw.io" modified="2020-03-09T22:55:19.918Z" agent="Mozilla/5.0 (Windows NT 10.0; Win64; x64; rv:73.0) Gecko/20100101 Firefox/73.0" etag="P90hJY6Wp6dUgGkzSVYU" version="12.8.1" type="github">
  <diagram id="C5RBs43oDa-KdzZeNtuy" name="Page-1">
    <mxGraphModel dx="1038" dy="575" grid="1" gridSize="10" guides="1" tooltips="1" connect="1" arrows="1" fold="1" page="1" pageScale="1" pageWidth="827" pageHeight="1169" math="0" shadow="0">
      <root>
        <mxCell id="WIyWlLk6GJQsqaUBKTNV-0" />
        <mxCell id="WIyWlLk6GJQsqaUBKTNV-1" parent="WIyWlLk6GJQsqaUBKTNV-0" />
        <mxCell id="NFmhJHQ9qTfSH904lzhk-6" style="edgeStyle=orthogonalEdgeStyle;rounded=0;orthogonalLoop=1;jettySize=auto;html=1;exitX=1;exitY=0.75;exitDx=0;exitDy=0;entryX=0;entryY=0.5;entryDx=0;entryDy=0;" edge="1" parent="WIyWlLk6GJQsqaUBKTNV-1" source="NFmhJHQ9qTfSH904lzhk-0" target="NFmhJHQ9qTfSH904lzhk-4">
          <mxGeometry relative="1" as="geometry" />
        </mxCell>
        <mxCell id="NFmhJHQ9qTfSH904lzhk-8" style="edgeStyle=orthogonalEdgeStyle;rounded=0;orthogonalLoop=1;jettySize=auto;html=1;exitX=1;exitY=0.25;exitDx=0;exitDy=0;" edge="1" parent="WIyWlLk6GJQsqaUBKTNV-1" source="NFmhJHQ9qTfSH904lzhk-0" target="NFmhJHQ9qTfSH904lzhk-7">
          <mxGeometry relative="1" as="geometry" />
        </mxCell>
        <mxCell id="NFmhJHQ9qTfSH904lzhk-0" value="Basic Industrial Chemistry" style="rounded=1;whiteSpace=wrap;html=1;" vertex="1" parent="WIyWlLk6GJQsqaUBKTNV-1">
          <mxGeometry x="120" y="80" width="120" height="60" as="geometry" />
        </mxCell>
        <mxCell id="NFmhJHQ9qTfSH904lzhk-9" style="edgeStyle=orthogonalEdgeStyle;rounded=0;orthogonalLoop=1;jettySize=auto;html=1;exitX=1;exitY=0.25;exitDx=0;exitDy=0;" edge="1" parent="WIyWlLk6GJQsqaUBKTNV-1" source="NFmhJHQ9qTfSH904lzhk-1" target="NFmhJHQ9qTfSH904lzhk-2">
          <mxGeometry relative="1" as="geometry" />
        </mxCell>
        <mxCell id="NFmhJHQ9qTfSH904lzhk-10" style="edgeStyle=orthogonalEdgeStyle;rounded=0;orthogonalLoop=1;jettySize=auto;html=1;exitX=1;exitY=0.75;exitDx=0;exitDy=0;" edge="1" parent="WIyWlLk6GJQsqaUBKTNV-1" source="NFmhJHQ9qTfSH904lzhk-1" target="NFmhJHQ9qTfSH904lzhk-3">
          <mxGeometry relative="1" as="geometry" />
        </mxCell>
        <mxCell id="NFmhJHQ9qTfSH904lzhk-1" value="Experimental Electronics" style="rounded=1;whiteSpace=wrap;html=1;" vertex="1" parent="WIyWlLk6GJQsqaUBKTNV-1">
          <mxGeometry x="120" y="260" width="120" height="60" as="geometry" />
        </mxCell>
        <mxCell id="NFmhJHQ9qTfSH904lzhk-13" style="edgeStyle=orthogonalEdgeStyle;rounded=0;orthogonalLoop=1;jettySize=auto;html=1;exitX=1;exitY=0.5;exitDx=0;exitDy=0;entryX=0;entryY=0.5;entryDx=0;entryDy=0;" edge="1" parent="WIyWlLk6GJQsqaUBKTNV-1" source="NFmhJHQ9qTfSH904lzhk-2" target="NFmhJHQ9qTfSH904lzhk-11">
          <mxGeometry relative="1" as="geometry" />
        </mxCell>
        <mxCell id="NFmhJHQ9qTfSH904lzhk-2" value="High Power Radio" style="rounded=1;whiteSpace=wrap;html=1;" vertex="1" parent="WIyWlLk6GJQsqaUBKTNV-1">
          <mxGeometry x="310" y="220" width="120" height="60" as="geometry" />
        </mxCell>
        <mxCell id="NFmhJHQ9qTfSH904lzhk-3" value="Integrated&lt;br&gt;Circuitry" style="rounded=1;whiteSpace=wrap;html=1;" vertex="1" parent="WIyWlLk6GJQsqaUBKTNV-1">
          <mxGeometry x="310" y="300" width="120" height="60" as="geometry" />
        </mxCell>
        <mxCell id="NFmhJHQ9qTfSH904lzhk-17" style="edgeStyle=orthogonalEdgeStyle;rounded=0;orthogonalLoop=1;jettySize=auto;html=1;exitX=1;exitY=0.5;exitDx=0;exitDy=0;entryX=0;entryY=0.5;entryDx=0;entryDy=0;" edge="1" parent="WIyWlLk6GJQsqaUBKTNV-1" source="NFmhJHQ9qTfSH904lzhk-4" target="NFmhJHQ9qTfSH904lzhk-16">
          <mxGeometry relative="1" as="geometry" />
        </mxCell>
        <mxCell id="NFmhJHQ9qTfSH904lzhk-4" value="Commercial plastics&lt;br&gt;" style="rounded=1;whiteSpace=wrap;html=1;" vertex="1" parent="WIyWlLk6GJQsqaUBKTNV-1">
          <mxGeometry x="310" y="120" width="120" height="60" as="geometry" />
        </mxCell>
        <mxCell id="NFmhJHQ9qTfSH904lzhk-7" value="Large scale chemistry&lt;br&gt;" style="rounded=1;whiteSpace=wrap;html=1;" vertex="1" parent="WIyWlLk6GJQsqaUBKTNV-1">
          <mxGeometry x="310" y="40" width="120" height="60" as="geometry" />
        </mxCell>
        <mxCell id="NFmhJHQ9qTfSH904lzhk-11" value="TV" style="rounded=1;whiteSpace=wrap;html=1;" vertex="1" parent="WIyWlLk6GJQsqaUBKTNV-1">
          <mxGeometry x="470" y="220" width="120" height="60" as="geometry" />
        </mxCell>
        <mxCell id="NFmhJHQ9qTfSH904lzhk-14" value="Modern Medicine" style="rounded=1;whiteSpace=wrap;html=1;" vertex="1" parent="WIyWlLk6GJQsqaUBKTNV-1">
          <mxGeometry x="120" y="500" width="120" height="60" as="geometry" />
        </mxCell>
        <mxCell id="NFmhJHQ9qTfSH904lzhk-15" value="Modern Goverments" style="rounded=1;whiteSpace=wrap;html=1;" vertex="1" parent="WIyWlLk6GJQsqaUBKTNV-1">
          <mxGeometry x="120" y="600" width="120" height="60" as="geometry" />
        </mxCell>
        <mxCell id="NFmhJHQ9qTfSH904lzhk-16" value="Large scale Plastic manufacturing" style="rounded=1;whiteSpace=wrap;html=1;" vertex="1" parent="WIyWlLk6GJQsqaUBKTNV-1">
          <mxGeometry x="470" y="120" width="120" height="60" as="geometry" />
        </mxCell>
        <mxCell id="NFmhJHQ9qTfSH904lzhk-18" value="Prefabs" style="rounded=1;whiteSpace=wrap;html=1;" vertex="1" parent="WIyWlLk6GJQsqaUBKTNV-1">
          <mxGeometry x="120" y="400" width="120" height="60" as="geometry" />
        </mxCell>
        <mxCell id="NFmhJHQ9qTfSH904lzhk-19" value="Modern Education" style="rounded=1;whiteSpace=wrap;html=1;" vertex="1" parent="WIyWlLk6GJQsqaUBKTNV-1">
          <mxGeometry x="120" y="700" width="120" height="60" as="geometry" />
        </mxCell>
        <mxCell id="NFmhJHQ9qTfSH904lzhk-22" style="edgeStyle=orthogonalEdgeStyle;rounded=0;orthogonalLoop=1;jettySize=auto;html=1;exitX=1;exitY=0.5;exitDx=0;exitDy=0;entryX=0;entryY=0.5;entryDx=0;entryDy=0;" edge="1" parent="WIyWlLk6GJQsqaUBKTNV-1" source="NFmhJHQ9qTfSH904lzhk-20" target="NFmhJHQ9qTfSH904lzhk-21">
          <mxGeometry relative="1" as="geometry" />
        </mxCell>
        <mxCell id="NFmhJHQ9qTfSH904lzhk-20" value="Modern Agriculture" style="rounded=1;whiteSpace=wrap;html=1;" vertex="1" parent="WIyWlLk6GJQsqaUBKTNV-1">
          <mxGeometry x="120" y="800" width="120" height="60" as="geometry" />
        </mxCell>
        <mxCell id="NFmhJHQ9qTfSH904lzhk-21" value="Greenhouse experiments" style="rounded=1;whiteSpace=wrap;html=1;" vertex="1" parent="WIyWlLk6GJQsqaUBKTNV-1">
          <mxGeometry x="310" y="800" width="120" height="60" as="geometry" />
        </mxCell>
        <mxCell id="NFmhJHQ9qTfSH904lzhk-26" style="edgeStyle=orthogonalEdgeStyle;rounded=0;orthogonalLoop=1;jettySize=auto;html=1;exitX=1;exitY=0.75;exitDx=0;exitDy=0;entryX=0;entryY=0.5;entryDx=0;entryDy=0;" edge="1" parent="WIyWlLk6GJQsqaUBKTNV-1" source="NFmhJHQ9qTfSH904lzhk-23" target="NFmhJHQ9qTfSH904lzhk-25">
          <mxGeometry relative="1" as="geometry" />
        </mxCell>
        <mxCell id="NFmhJHQ9qTfSH904lzhk-27" style="edgeStyle=orthogonalEdgeStyle;rounded=0;orthogonalLoop=1;jettySize=auto;html=1;exitX=1;exitY=0.25;exitDx=0;exitDy=0;entryX=0;entryY=0.5;entryDx=0;entryDy=0;" edge="1" parent="WIyWlLk6GJQsqaUBKTNV-1" source="NFmhJHQ9qTfSH904lzhk-23" target="NFmhJHQ9qTfSH904lzhk-24">
          <mxGeometry relative="1" as="geometry" />
        </mxCell>
        <mxCell id="NFmhJHQ9qTfSH904lzhk-23" value="&lt;div&gt;Precise engineering&lt;/div&gt;" style="rounded=1;whiteSpace=wrap;html=1;" vertex="1" parent="WIyWlLk6GJQsqaUBKTNV-1">
          <mxGeometry x="120" y="940" width="120" height="60" as="geometry" />
        </mxCell>
        <mxCell id="NFmhJHQ9qTfSH904lzhk-29" style="edgeStyle=orthogonalEdgeStyle;rounded=0;orthogonalLoop=1;jettySize=auto;html=1;exitX=1;exitY=0.5;exitDx=0;exitDy=0;entryX=0;entryY=0.5;entryDx=0;entryDy=0;" edge="1" parent="WIyWlLk6GJQsqaUBKTNV-1" source="NFmhJHQ9qTfSH904lzhk-24" target="NFmhJHQ9qTfSH904lzhk-28">
          <mxGeometry relative="1" as="geometry" />
        </mxCell>
        <mxCell id="NFmhJHQ9qTfSH904lzhk-24" value="Small scale car manufacturing" style="rounded=1;whiteSpace=wrap;html=1;" vertex="1" parent="WIyWlLk6GJQsqaUBKTNV-1">
          <mxGeometry x="310" y="900" width="120" height="60" as="geometry" />
        </mxCell>
        <mxCell id="NFmhJHQ9qTfSH904lzhk-25" value="Train manufacturing" style="rounded=1;whiteSpace=wrap;html=1;" vertex="1" parent="WIyWlLk6GJQsqaUBKTNV-1">
          <mxGeometry x="310" y="980" width="120" height="60" as="geometry" />
        </mxCell>
        <mxCell id="NFmhJHQ9qTfSH904lzhk-28" value="Large scale car manufacturing" style="rounded=1;whiteSpace=wrap;html=1;" vertex="1" parent="WIyWlLk6GJQsqaUBKTNV-1">
          <mxGeometry x="470" y="900" width="120" height="60" as="geometry" />
        </mxCell>
        <mxCell id="NFmhJHQ9qTfSH904lzhk-33" style="edgeStyle=orthogonalEdgeStyle;rounded=0;orthogonalLoop=1;jettySize=auto;html=1;exitX=1;exitY=0.25;exitDx=0;exitDy=0;entryX=0;entryY=0.5;entryDx=0;entryDy=0;" edge="1" parent="WIyWlLk6GJQsqaUBKTNV-1" source="NFmhJHQ9qTfSH904lzhk-30" target="NFmhJHQ9qTfSH904lzhk-31">
          <mxGeometry relative="1" as="geometry" />
        </mxCell>
        <mxCell id="NFmhJHQ9qTfSH904lzhk-34" style="edgeStyle=orthogonalEdgeStyle;rounded=0;orthogonalLoop=1;jettySize=auto;html=1;exitX=1;exitY=0.75;exitDx=0;exitDy=0;entryX=0;entryY=0.5;entryDx=0;entryDy=0;" edge="1" parent="WIyWlLk6GJQsqaUBKTNV-1" source="NFmhJHQ9qTfSH904lzhk-30" target="NFmhJHQ9qTfSH904lzhk-32">
          <mxGeometry relative="1" as="geometry" />
        </mxCell>
        <mxCell id="NFmhJHQ9qTfSH904lzhk-30" value="Industrial Oil extraction" style="rounded=1;whiteSpace=wrap;html=1;" vertex="1" parent="WIyWlLk6GJQsqaUBKTNV-1">
          <mxGeometry x="120" y="1120" width="120" height="60" as="geometry" />
        </mxCell>
        <mxCell id="NFmhJHQ9qTfSH904lzhk-31" value="Offshore Drilling" style="rounded=1;whiteSpace=wrap;html=1;" vertex="1" parent="WIyWlLk6GJQsqaUBKTNV-1">
          <mxGeometry x="310" y="1080" width="120" height="60" as="geometry" />
        </mxCell>
        <mxCell id="NFmhJHQ9qTfSH904lzhk-32" value="Large Scale Oil Extraction" style="rounded=1;whiteSpace=wrap;html=1;" vertex="1" parent="WIyWlLk6GJQsqaUBKTNV-1">
          <mxGeometry x="310" y="1160" width="120" height="60" as="geometry" />
        </mxCell>
      </root>
    </mxGraphModel>
  </diagram>
</mxfile>
